<svg width="236" height="37" viewBox="0 0 236 37" fill="none" xmlns="http://www.w3.org/2000/svg">
<path d="M126.353 36.2103C124.846 36.2103 123.45 35.9633 122.165 35.4692C120.881 34.9751 119.769 34.2834 118.83 33.394C117.916 32.5293 117.249 31.5041 116.829 30.3183L121.35 28.6136C121.647 29.5524 122.227 30.3059 123.092 30.8741C123.981 31.467 125.068 31.7635 126.353 31.7635C127.341 31.7635 128.206 31.5782 128.947 31.2076C129.713 30.8371 130.306 30.2936 130.726 29.5771C131.146 28.8854 131.355 28.0454 131.355 27.0573V22.4622L132.282 23.5739C131.59 24.7844 130.664 25.6985 129.503 26.3161C128.342 26.9337 127.02 27.2425 125.538 27.2425C123.66 27.2425 121.98 26.8102 120.498 25.9455C119.016 25.0809 117.854 23.8951 117.014 22.3881C116.174 20.8811 115.754 19.1888 115.754 17.3113C115.754 15.409 116.174 13.7167 117.014 12.2345C117.854 10.7522 119.003 9.59106 120.461 8.7511C121.918 7.88643 123.574 7.4541 125.426 7.4541C126.933 7.4541 128.255 7.77526 129.391 8.41758C130.553 9.0352 131.516 9.93692 132.282 11.1227L131.615 12.3456V7.89879H136.21V27.0573C136.21 28.8113 135.778 30.38 134.913 31.7635C134.073 33.147 132.912 34.234 131.43 35.0245C129.972 35.8151 128.28 36.2103 126.353 36.2103ZM126.13 22.7586C127.168 22.7586 128.07 22.5363 128.836 22.0916C129.626 21.6222 130.244 20.9799 130.688 20.1647C131.133 19.3494 131.355 18.4106 131.355 17.3483C131.355 16.3107 131.121 15.3843 130.651 14.569C130.207 13.7291 129.589 13.0744 128.799 12.605C128.033 12.1356 127.143 11.9009 126.13 11.9009C125.118 11.9009 124.203 12.1356 123.388 12.605C122.573 13.0744 121.931 13.7291 121.461 14.569C121.017 15.3843 120.794 16.3107 120.794 17.3483C120.794 18.3859 121.017 19.3123 121.461 20.1276C121.931 20.9429 122.561 21.5852 123.351 22.0546C124.166 22.5239 125.093 22.7586 126.13 22.7586Z" fill="white"/>
<path d="M94.5802 28.0578V7.89879H99.1382V11.8639L98.7677 11.1598C99.2371 9.94927 100.003 9.0352 101.065 8.41758C102.152 7.77526 103.412 7.4541 104.845 7.4541C106.327 7.4541 107.637 7.77526 108.773 8.41758C109.934 9.05991 110.836 9.96163 111.478 11.1227C112.121 12.2592 112.442 13.5809 112.442 15.0878V28.0578H107.587V16.2366C107.587 15.3472 107.414 14.5814 107.068 13.9391C106.723 13.2968 106.241 12.8027 105.623 12.4568C105.03 12.0862 104.326 11.9009 103.511 11.9009C102.72 11.9009 102.016 12.0862 101.399 12.4568C100.781 12.8027 100.299 13.2968 99.9535 13.9391C99.6076 14.5814 99.4347 15.3472 99.4347 16.2366V28.0578H94.5802Z" fill="white"/>
<path d="M86.0872 28.0577V7.89865H90.9417V28.0577H86.0872ZM86.0872 5.63818V0.450195H90.9417V5.63818H86.0872Z" fill="white"/>
<path d="M64.5831 28.0578V7.89879H69.1411V11.8639L68.7705 11.1598C69.2399 9.94927 70.0058 9.0352 71.0681 8.41758C72.1551 7.77526 73.415 7.4541 74.8479 7.4541C76.3302 7.4541 77.6395 7.77526 78.7759 8.41758C79.937 9.05991 80.8388 9.96163 81.4811 11.1227C82.1234 12.2592 82.4446 13.5809 82.4446 15.0878V28.0578H77.5901V16.2366C77.5901 15.3472 77.4172 14.5814 77.0713 13.9391C76.7254 13.2968 76.2437 12.8027 75.6261 12.4568C75.0332 12.0862 74.3291 11.9009 73.5138 11.9009C72.7233 11.9009 72.0192 12.0862 71.4016 12.4568C70.784 12.8027 70.3022 13.2968 69.9564 13.9391C69.6105 14.5814 69.4376 15.3472 69.4376 16.2366V28.0578H64.5831Z" fill="white"/>
<path d="M50.1898 28.0576V7.89861H54.7478V12.3825L54.3772 11.7155C54.8466 10.2085 55.5754 9.15855 56.5636 8.56564C57.5765 7.97273 58.787 7.67627 60.1952 7.67627H61.381V11.9749H59.6393C58.2559 11.9749 57.1442 12.4072 56.3042 13.2719C55.4642 14.1118 55.0443 15.2977 55.0443 16.8294V28.0576H50.1898Z" fill="white"/>
<path d="M11.0726 28.5027C9.61498 28.5027 8.26858 28.2186 7.03335 27.6504C5.82282 27.0575 4.85933 26.2175 4.1429 25.1305L4.62464 24.167V28.058H0.0666313V0.00585938H4.9211V11.9012L4.17996 10.9006C4.87169 9.81361 5.81046 8.97365 6.99629 8.38074C8.18211 7.76312 9.55322 7.45431 11.1096 7.45431C13.0119 7.45431 14.7288 7.9237 16.2605 8.86248C17.7922 9.80126 19.0028 11.0612 19.8921 12.6423C20.8062 14.2234 21.2632 16.0021 21.2632 17.9785C21.2632 19.9302 20.8185 21.7089 19.9292 23.3147C19.0398 24.9205 17.8293 26.1928 16.2976 27.1316C14.7659 28.0457 13.0242 28.5027 11.0726 28.5027ZM10.5167 24.0558C11.6284 24.0558 12.6166 23.7964 13.4813 23.2776C14.3459 22.7589 15.013 22.0424 15.4823 21.1283C15.9764 20.2143 16.2235 19.1643 16.2235 17.9785C16.2235 16.7927 15.9764 15.7551 15.4823 14.8657C15.013 13.9516 14.3459 13.2352 13.4813 12.7164C12.6166 12.1729 11.6284 11.9012 10.5167 11.9012C9.4544 11.9012 8.49092 12.1606 7.62626 12.6794C6.7863 13.1981 6.11927 13.9269 5.62518 14.8657C5.15579 15.7798 4.9211 16.8174 4.9211 17.9785C4.9211 19.1643 5.15579 20.2143 5.62518 21.1283C6.11927 22.0424 6.7863 22.7589 7.62626 23.2776C8.49092 23.7964 9.4544 24.0558 10.5167 24.0558Z" fill="white"/>
<rect x="24.6872" y="7.71387" width="5.52077" height="15.1254" fill="white"/>
<rect x="30.2079" y="22.5371" width="5.52077" height="5.52077" fill="white"/>
<rect x="35.7287" y="7.71387" width="5.52077" height="15.1254" fill="white"/>
<rect x="41.2495" y="22.5371" width="5.52077" height="5.52077" fill="white"/>
<path d="M219.76 28.4966C217.611 28.4966 215.734 27.9902 214.128 26.9773C212.547 25.9397 211.46 24.5439 210.867 22.7898L214.498 21.0482C215.017 22.1846 215.734 23.0739 216.648 23.7163C217.586 24.3586 218.624 24.6797 219.76 24.6797C220.65 24.6797 221.354 24.4821 221.873 24.0868C222.391 23.6916 222.651 23.1728 222.651 22.5304C222.651 22.1352 222.54 21.814 222.317 21.567C222.12 21.2952 221.836 21.0729 221.465 20.8999C221.119 20.7023 220.736 20.5417 220.316 20.4182L217.018 19.4918C215.314 18.9977 214.017 18.2442 213.127 17.2313C212.263 16.2184 211.83 15.0202 211.83 13.6368C211.83 12.4015 212.139 11.3269 212.757 10.4128C213.399 9.47403 214.276 8.74524 215.388 8.22644C216.524 7.70764 217.821 7.44824 219.279 7.44824C221.181 7.44824 222.861 7.90528 224.318 8.81935C225.776 9.73342 226.814 11.0181 227.431 12.6733L223.725 14.415C223.38 13.5009 222.799 12.7721 221.984 12.2286C221.169 11.6851 220.254 11.4133 219.242 11.4133C218.426 11.4133 217.784 11.5986 217.315 11.9692C216.845 12.3398 216.611 12.8215 216.611 13.4144C216.611 13.785 216.709 14.1061 216.907 14.3779C217.105 14.6497 217.376 14.872 217.722 15.0449C218.093 15.2179 218.513 15.3784 218.982 15.5267L222.206 16.4902C223.861 16.9842 225.134 17.7254 226.023 18.7136C226.937 19.7018 227.394 20.9123 227.394 22.3452C227.394 23.5557 227.073 24.6303 226.431 25.5691C225.788 26.4832 224.899 27.1996 223.763 27.7184C222.626 28.2372 221.292 28.4966 219.76 28.4966Z" fill="white"/>
<path d="M197.99 28.4966C196.013 28.4966 194.21 28.0396 192.579 27.1255C190.973 26.2114 189.689 24.9639 188.725 23.3828C187.787 21.8017 187.317 19.9982 187.317 17.9724C187.317 15.9466 187.787 14.1432 188.725 12.5621C189.689 10.981 190.973 9.73342 192.579 8.81935C194.185 7.90528 195.989 7.44824 197.99 7.44824C199.966 7.44824 201.757 7.90528 203.363 8.81935C204.969 9.73342 206.241 10.981 207.18 12.5621C208.143 14.1185 208.625 15.9219 208.625 17.9724C208.625 19.9982 208.143 21.8017 207.18 23.3828C206.216 24.9639 204.932 26.2114 203.326 27.1255C201.72 28.0396 199.941 28.4966 197.99 28.4966ZM197.99 24.0498C199.077 24.0498 200.028 23.7904 200.843 23.2716C201.683 22.7528 202.338 22.0363 202.807 21.1223C203.301 20.1835 203.548 19.1335 203.548 17.9724C203.548 16.7866 203.301 15.749 202.807 14.8596C202.338 13.9456 201.683 13.2291 200.843 12.7103C200.028 12.1668 199.077 11.8951 197.99 11.8951C196.878 11.8951 195.902 12.1668 195.062 12.7103C194.222 13.2291 193.555 13.9456 193.061 14.8596C192.592 15.749 192.357 16.7866 192.357 17.9724C192.357 19.1335 192.592 20.1835 193.061 21.1223C193.555 22.0363 194.222 22.7528 195.062 23.2716C195.902 23.7904 196.878 24.0498 197.99 24.0498Z" fill="white"/>
<path d="M174.643 28.0518V7.89275H179.201V12.3767L178.831 11.7096C179.3 10.2026 180.029 9.15269 181.017 8.55978C182.03 7.96687 183.241 7.67041 184.649 7.67041H185.835V11.969H184.093C182.71 11.969 181.598 12.4014 180.758 13.266C179.918 14.106 179.498 15.2918 179.498 16.8235V28.0518H174.643Z" fill="white"/>
<path d="M161.035 28.4968C159.577 28.4968 158.231 28.2127 156.995 27.6445C155.785 27.0516 154.821 26.2116 154.105 25.1246L154.587 24.1612V28.0521H150.029V0H154.883V11.8953L154.142 10.8948C154.834 9.80775 155.773 8.96779 156.958 8.37488C158.144 7.75726 159.515 7.44845 161.072 7.44845C162.974 7.44845 164.691 7.91784 166.223 8.85662C167.754 9.7954 168.965 11.0553 169.854 12.6364C170.768 14.2175 171.225 15.9963 171.225 17.9726C171.225 19.9243 170.781 21.703 169.891 23.3088C169.002 24.9146 167.791 26.1869 166.26 27.1257C164.728 28.0398 162.986 28.4968 161.035 28.4968ZM160.479 24.05C161.59 24.05 162.579 23.7906 163.443 23.2718C164.308 22.753 164.975 22.0366 165.444 21.1225C165.938 20.2084 166.186 19.1585 166.186 17.9726C166.186 16.7868 165.938 15.7492 165.444 14.8599C164.975 13.9458 164.308 13.2293 163.443 12.7105C162.579 12.167 161.59 11.8953 160.479 11.8953C159.416 11.8953 158.453 12.1547 157.588 12.6735C156.748 13.1923 156.081 13.9211 155.587 14.8599C155.118 15.7739 154.883 16.8115 154.883 17.9726C154.883 19.1585 155.118 20.2084 155.587 21.1225C156.081 22.0366 156.748 22.753 157.588 23.2718C158.453 23.7906 159.416 24.05 160.479 24.05Z" fill="white"/>
<path d="M230.627 22.9917H235.767V28.1323H230.627V22.9917Z" fill="white"/>
</svg>
